<svg width="56" height="56" viewBox="0 0 56 56" fill="none" xmlns="http://www.w3.org/2000/svg">
<g clip-path="url(#clip0_1067_16818)">
<path fill-rule="evenodd" clip-rule="evenodd" d="M43.5912 34.2222V21.7778C43.5912 13.1867 36.611 6.22222 28.0006 6.22222C19.3902 6.22222 12.41 13.1867 12.41 21.7778V34.2222C12.41 42.8133 19.3902 49.7778 28.0006 49.7778C36.611 49.7778 43.5912 42.8133 43.5912 34.2222ZM28.0006 0C15.946 0 6.17383 9.75025 6.17383 21.7778V34.2222C6.17383 46.2498 15.946 56 28.0006 56C40.0552 56 49.8274 46.2498 49.8274 34.2222V21.7778C49.8274 9.75025 40.0552 0 28.0006 0Z" fill="#FEFEFE"/>
<path fill-rule="evenodd" clip-rule="evenodd" d="M31.1607 34.2614V21.7386C31.1607 20.0095 29.7459 18.6079 28.0006 18.6079C26.2553 18.6079 24.8405 20.0095 24.8405 21.7386V34.2614C24.8405 35.9904 26.2553 37.3921 28.0006 37.3921C29.7459 37.3921 31.1607 35.9904 31.1607 34.2614ZM28.0006 12.3464C22.7648 12.3464 18.5203 16.5514 18.5203 21.7386V34.2614C18.5203 39.4485 22.7648 43.6535 28.0006 43.6535C33.2364 43.6535 37.4809 39.4485 37.4809 34.2614V21.7386C37.4809 16.5514 33.2364 12.3464 28.0006 12.3464Z" fill="#FEFEFE"/>
</g>
<defs>
<clipPath id="clip0_1067_16818">
<rect width="56" height="56" fill="white"/>
</clipPath>
</defs>
</svg>
