<svg width="1058" height="982" viewBox="0 0 1058 982" fill="none" xmlns="http://www.w3.org/2000/svg">
<g clip-path="url(#clip0_1067_16804)">
<rect width="1058" height="982" fill="#2A2A2A"/>
<g opacity="0.05" clip-path="url(#clip1_1067_16804)">
<path fill-rule="evenodd" clip-rule="evenodd" d="M859.151 176.056V82.9444C859.151 18.6646 806.925 -33.4444 742.5 -33.4444C678.076 -33.4444 625.85 18.6646 625.85 82.9444V176.056C625.85 240.335 678.076 292.444 742.5 292.444C806.925 292.444 859.151 240.335 859.151 176.056ZM742.5 -80C652.306 -80 579.189 -7.04727 579.189 82.9444V176.056C579.189 266.047 652.306 339 742.5 339C832.695 339 905.811 266.047 905.811 176.056V82.9444C905.811 -7.04727 832.695 -80 742.5 -80Z" fill="#FEFEFE"/>
<path fill-rule="evenodd" clip-rule="evenodd" d="M766.145 176.349V82.6511C766.145 69.7141 755.559 59.2267 742.501 59.2267C729.442 59.2267 718.856 69.7141 718.856 82.6511V176.349C718.856 189.286 729.442 199.773 742.501 199.773C755.559 199.773 766.145 189.286 766.145 176.349ZM742.501 12.3778C703.325 12.3778 671.567 43.8402 671.567 82.6511V176.349C671.567 215.16 703.325 246.622 742.501 246.622C781.676 246.622 813.434 215.16 813.434 176.349V82.6511C813.434 43.8402 781.676 12.3778 742.501 12.3778Z" fill="#FEFEFE"/>
</g>
<g opacity="0.05" clip-path="url(#clip2_1067_16804)">
<path fill-rule="evenodd" clip-rule="evenodd" d="M675.151 570.056V476.944C675.151 412.665 622.925 360.556 558.5 360.556C494.076 360.556 441.85 412.665 441.85 476.944V570.056C441.85 634.335 494.076 686.444 558.5 686.444C622.925 686.444 675.151 634.335 675.151 570.056ZM558.5 314C468.306 314 395.189 386.953 395.189 476.944V570.056C395.189 660.047 468.306 733 558.5 733C648.695 733 721.811 660.047 721.811 570.056V476.944C721.811 386.953 648.695 314 558.5 314Z" fill="#FEFEFE"/>
<path fill-rule="evenodd" clip-rule="evenodd" d="M582.145 570.349V476.651C582.145 463.714 571.559 453.227 558.501 453.227C545.442 453.227 534.856 463.714 534.856 476.651V570.349C534.856 583.286 545.442 593.773 558.501 593.773C571.559 593.773 582.145 583.286 582.145 570.349ZM558.501 406.378C519.325 406.378 487.567 437.84 487.567 476.651V570.349C487.567 609.16 519.325 640.622 558.501 640.622C597.676 640.622 629.434 609.16 629.434 570.349V476.651C629.434 437.84 597.676 406.378 558.501 406.378Z" fill="#FEFEFE"/>
</g>
<g opacity="0.05" clip-path="url(#clip3_1067_16804)">
<path fill-rule="evenodd" clip-rule="evenodd" d="M859.151 966.056V872.944C859.151 808.665 806.925 756.556 742.5 756.556C678.076 756.556 625.85 808.665 625.85 872.944V966.056C625.85 1030.34 678.076 1082.44 742.5 1082.44C806.925 1082.44 859.151 1030.34 859.151 966.056ZM742.5 710C652.306 710 579.189 782.953 579.189 872.944V966.056C579.189 1056.05 652.306 1129 742.5 1129C832.695 1129 905.811 1056.05 905.811 966.056V872.944C905.811 782.953 832.695 710 742.5 710Z" fill="#FEFEFE"/>
<path fill-rule="evenodd" clip-rule="evenodd" d="M766.145 966.349V872.651C766.145 859.714 755.559 849.227 742.501 849.227C729.442 849.227 718.856 859.714 718.856 872.651V966.349C718.856 979.286 729.442 989.773 742.501 989.773C755.559 989.773 766.145 979.286 766.145 966.349ZM742.501 802.378C703.325 802.378 671.567 833.84 671.567 872.651V966.349C671.567 1005.16 703.325 1036.62 742.501 1036.62C781.676 1036.62 813.434 1005.16 813.434 966.349V872.651C813.434 833.84 781.676 802.378 742.501 802.378Z" fill="#FEFEFE"/>
</g>
<g opacity="0.1" clip-path="url(#clip4_1067_16804)">
<path fill-rule="evenodd" clip-rule="evenodd" d="M1428.91 615.722V489.277C1428.91 401.985 1357.99 331.221 1270.5 331.221C1183.01 331.221 1112.09 401.985 1112.09 489.277V615.722C1112.09 703.013 1183.01 773.777 1270.5 773.777C1357.99 773.777 1428.91 703.013 1428.91 615.722ZM1270.5 267.999C1148.01 267.999 1048.72 367.069 1048.72 489.277V615.722C1048.72 737.93 1148.01 836.999 1270.5 836.999C1392.98 836.999 1492.27 737.93 1492.27 615.722V489.277C1492.27 367.069 1392.98 267.999 1270.5 267.999Z" fill="#FEFEFE"/>
<path fill-rule="evenodd" clip-rule="evenodd" d="M1302.61 616.12V488.879C1302.61 471.31 1288.23 457.068 1270.5 457.068C1252.77 457.068 1238.39 471.31 1238.39 488.879V616.12C1238.39 633.688 1252.77 647.93 1270.5 647.93C1288.23 647.93 1302.61 633.688 1302.61 616.12ZM1270.5 393.448C1217.3 393.448 1174.17 436.174 1174.17 488.879V616.12C1174.17 668.825 1217.3 711.55 1270.5 711.55C1323.7 711.55 1366.83 668.825 1366.83 616.12V488.879C1366.83 436.174 1323.7 393.448 1270.5 393.448Z" fill="#FEFEFE"/>
</g>
<g opacity="0.05" clip-path="url(#clip5_1067_16804)">
<path fill-rule="evenodd" clip-rule="evenodd" d="M492.151 176.056V82.9444C492.151 18.6646 439.925 -33.4444 375.5 -33.4444C311.076 -33.4444 258.85 18.6646 258.85 82.9444V176.056C258.85 240.335 311.076 292.444 375.5 292.444C439.925 292.444 492.151 240.335 492.151 176.056ZM375.5 -80C285.306 -80 212.189 -7.04727 212.189 82.9444V176.056C212.189 266.047 285.306 339 375.5 339C465.695 339 538.811 266.047 538.811 176.056V82.9444C538.811 -7.04727 465.695 -80 375.5 -80Z" fill="#FEFEFE"/>
<path fill-rule="evenodd" clip-rule="evenodd" d="M399.145 176.349V82.6511C399.145 69.7141 388.559 59.2267 375.501 59.2267C362.442 59.2267 351.856 69.7141 351.856 82.6511V176.349C351.856 189.286 362.442 199.773 375.501 199.773C388.559 199.773 399.145 189.286 399.145 176.349ZM375.501 12.3778C336.325 12.3778 304.567 43.8402 304.567 82.6511V176.349C304.567 215.16 336.325 246.622 375.501 246.622C414.676 246.622 446.434 215.16 446.434 176.349V82.6511C446.434 43.8402 414.676 12.3778 375.501 12.3778Z" fill="#FEFEFE"/>
</g>
<g opacity="0.05" clip-path="url(#clip6_1067_16804)">
<path fill-rule="evenodd" clip-rule="evenodd" d="M308.151 570.056V476.944C308.151 412.665 255.925 360.556 191.5 360.556C127.076 360.556 74.8497 412.665 74.8497 476.944V570.056C74.8497 634.335 127.076 686.444 191.5 686.444C255.925 686.444 308.151 634.335 308.151 570.056ZM191.5 314C101.306 314 28.1895 386.953 28.1895 476.944V570.056C28.1895 660.047 101.306 733 191.5 733C281.695 733 354.811 660.047 354.811 570.056V476.944C354.811 386.953 281.695 314 191.5 314Z" fill="#FEFEFE"/>
<path fill-rule="evenodd" clip-rule="evenodd" d="M215.145 570.349V476.651C215.145 463.714 204.559 453.227 191.501 453.227C178.442 453.227 167.856 463.714 167.856 476.651V570.349C167.856 583.286 178.442 593.773 191.501 593.773C204.559 593.773 215.145 583.286 215.145 570.349ZM191.501 406.378C152.325 406.378 120.567 437.84 120.567 476.651V570.349C120.567 609.16 152.325 640.622 191.501 640.622C230.676 640.622 262.434 609.16 262.434 570.349V476.651C262.434 437.84 230.676 406.378 191.501 406.378Z" fill="#FEFEFE"/>
</g>
<g opacity="0.05" clip-path="url(#clip7_1067_16804)">
<path fill-rule="evenodd" clip-rule="evenodd" d="M492.151 966.056V872.944C492.151 808.665 439.925 756.556 375.5 756.556C311.076 756.556 258.85 808.665 258.85 872.944V966.056C258.85 1030.34 311.076 1082.44 375.5 1082.44C439.925 1082.44 492.151 1030.34 492.151 966.056ZM375.5 710C285.306 710 212.189 782.953 212.189 872.944V966.056C212.189 1056.05 285.306 1129 375.5 1129C465.695 1129 538.811 1056.05 538.811 966.056V872.944C538.811 782.953 465.695 710 375.5 710Z" fill="#FEFEFE"/>
<path fill-rule="evenodd" clip-rule="evenodd" d="M399.145 966.349V872.651C399.145 859.714 388.559 849.227 375.501 849.227C362.442 849.227 351.856 859.714 351.856 872.651V966.349C351.856 979.286 362.442 989.773 375.501 989.773C388.559 989.773 399.145 979.286 399.145 966.349ZM375.501 802.378C336.325 802.378 304.567 833.84 304.567 872.651V966.349C304.567 1005.16 336.325 1036.62 375.501 1036.62C414.676 1036.62 446.434 1005.16 446.434 966.349V872.651C446.434 833.84 414.676 802.378 375.501 802.378Z" fill="#FEFEFE"/>
</g>
<g opacity="0.05" clip-path="url(#clip8_1067_16804)">
<path fill-rule="evenodd" clip-rule="evenodd" d="M125.151 176.056V82.9444C125.151 18.6646 72.9249 -33.4444 8.50047 -33.4444C-55.9239 -33.4444 -108.15 18.6646 -108.15 82.9444V176.056C-108.15 240.335 -55.9239 292.444 8.50047 292.444C72.9249 292.444 125.151 240.335 125.151 176.056ZM8.50047 -80C-81.6937 -80 -154.811 -7.04727 -154.811 82.9444V176.056C-154.811 266.047 -81.6937 339 8.50047 339C98.6947 339 171.811 266.047 171.811 176.056V82.9444C171.811 -7.04727 98.6947 -80 8.50047 -80Z" fill="#FEFEFE"/>
<path fill-rule="evenodd" clip-rule="evenodd" d="M32.1449 176.349V82.6511C32.1449 69.7141 21.5589 59.2267 8.50053 59.2267C-4.55788 59.2267 -15.1438 69.7141 -15.1438 82.6511V176.349C-15.1438 189.286 -4.55788 199.773 8.50053 199.773C21.5589 199.773 32.1449 189.286 32.1449 176.349ZM8.50053 12.3778C-30.6747 12.3778 -62.4325 43.8402 -62.4325 82.6511V176.349C-62.4325 215.16 -30.6747 246.622 8.50053 246.622C47.6758 246.622 79.4336 215.16 79.4336 176.349V82.6511C79.4336 43.8402 47.6758 12.3778 8.50053 12.3778Z" fill="#FEFEFE"/>
</g>
<g opacity="0.05" clip-path="url(#clip9_1067_16804)">
<path fill-rule="evenodd" clip-rule="evenodd" d="M125.151 966.056V872.944C125.151 808.665 72.9249 756.556 8.50047 756.556C-55.9239 756.556 -108.15 808.665 -108.15 872.944V966.056C-108.15 1030.34 -55.9239 1082.44 8.50047 1082.44C72.9249 1082.44 125.151 1030.34 125.151 966.056ZM8.50047 710C-81.6937 710 -154.811 782.953 -154.811 872.944V966.056C-154.811 1056.05 -81.6937 1129 8.50047 1129C98.6947 1129 171.811 1056.05 171.811 966.056V872.944C171.811 782.953 98.6947 710 8.50047 710Z" fill="#FEFEFE"/>
<path fill-rule="evenodd" clip-rule="evenodd" d="M32.1449 966.349V872.651C32.1449 859.714 21.5589 849.227 8.50053 849.227C-4.55788 849.227 -15.1438 859.714 -15.1438 872.651V966.349C-15.1438 979.286 -4.55788 989.773 8.50053 989.773C21.5589 989.773 32.1449 979.286 32.1449 966.349ZM8.50053 802.378C-30.6747 802.378 -62.4325 833.84 -62.4325 872.651V966.349C-62.4325 1005.16 -30.6747 1036.62 8.50053 1036.62C47.6758 1036.62 79.4336 1005.16 79.4336 966.349V872.651C79.4336 833.84 47.6758 802.378 8.50053 802.378Z" fill="#FEFEFE"/>
</g>
<g opacity="0.05" clip-path="url(#clip10_1067_16804)">
<path fill-rule="evenodd" clip-rule="evenodd" d="M1226.15 173.056V79.9444C1226.15 15.6646 1173.92 -36.4444 1109.5 -36.4444C1045.08 -36.4444 992.85 15.6646 992.85 79.9444V173.056C992.85 237.335 1045.08 289.444 1109.5 289.444C1173.92 289.444 1226.15 237.335 1226.15 173.056ZM1109.5 -83C1019.31 -83 946.189 -10.0473 946.189 79.9444V173.056C946.189 263.047 1019.31 336 1109.5 336C1199.69 336 1272.81 263.047 1272.81 173.056V79.9444C1272.81 -10.0473 1199.69 -83 1109.5 -83Z" fill="#FEFEFE"/>
<path fill-rule="evenodd" clip-rule="evenodd" d="M1133.14 173.349V79.6511C1133.14 66.7141 1122.56 56.2267 1109.5 56.2267C1096.44 56.2267 1085.86 66.7141 1085.86 79.6511V173.349C1085.86 186.286 1096.44 196.773 1109.5 196.773C1122.56 196.773 1133.14 186.286 1133.14 173.349ZM1109.5 9.37782C1070.33 9.37782 1038.57 40.8402 1038.57 79.6511V173.349C1038.57 212.16 1070.33 243.622 1109.5 243.622C1148.68 243.622 1180.43 212.16 1180.43 173.349V79.6511C1180.43 40.8402 1148.68 9.37782 1109.5 9.37782Z" fill="#FEFEFE"/>
</g>
<g opacity="0.05" clip-path="url(#clip11_1067_16804)">
<path fill-rule="evenodd" clip-rule="evenodd" d="M1226.15 963.056V869.944C1226.15 805.665 1173.92 753.556 1109.5 753.556C1045.08 753.556 992.85 805.665 992.85 869.944V963.056C992.85 1027.34 1045.08 1079.44 1109.5 1079.44C1173.92 1079.44 1226.15 1027.34 1226.15 963.056ZM1109.5 707C1019.31 707 946.189 779.953 946.189 869.944V963.056C946.189 1053.05 1019.31 1126 1109.5 1126C1199.69 1126 1272.81 1053.05 1272.81 963.056V869.944C1272.81 779.953 1199.69 707 1109.5 707Z" fill="#FEFEFE"/>
<path fill-rule="evenodd" clip-rule="evenodd" d="M1133.14 963.349V869.651C1133.14 856.714 1122.56 846.227 1109.5 846.227C1096.44 846.227 1085.86 856.714 1085.86 869.651V963.349C1085.86 976.286 1096.44 986.773 1109.5 986.773C1122.56 986.773 1133.14 976.286 1133.14 963.349ZM1109.5 799.378C1070.33 799.378 1038.57 830.84 1038.57 869.651V963.349C1038.57 1002.16 1070.33 1033.62 1109.5 1033.62C1148.68 1033.62 1180.43 1002.16 1180.43 963.349V869.651C1180.43 830.84 1148.68 799.378 1109.5 799.378Z" fill="#FEFEFE"/>
</g>
<g opacity="0.05" clip-path="url(#clip12_1067_16804)">
<path fill-rule="evenodd" clip-rule="evenodd" d="M1042.15 568.056V474.944C1042.15 410.665 989.925 358.556 925.5 358.556C861.076 358.556 808.85 410.665 808.85 474.944V568.056C808.85 632.335 861.076 684.444 925.5 684.444C989.925 684.444 1042.15 632.335 1042.15 568.056ZM925.5 312C835.306 312 762.189 384.953 762.189 474.944V568.056C762.189 658.047 835.306 731 925.5 731C1015.69 731 1088.81 658.047 1088.81 568.056V474.944C1088.81 384.953 1015.69 312 925.5 312Z" fill="#FEFEFE"/>
<path fill-rule="evenodd" clip-rule="evenodd" d="M949.145 568.349V474.651C949.145 461.714 938.559 451.227 925.501 451.227C912.442 451.227 901.856 461.714 901.856 474.651V568.349C901.856 581.286 912.442 591.773 925.501 591.773C938.559 591.773 949.145 581.286 949.145 568.349ZM925.501 404.378C886.325 404.378 854.567 435.84 854.567 474.651V568.349C854.567 607.16 886.325 638.622 925.501 638.622C964.676 638.622 996.434 607.16 996.434 568.349V474.651C996.434 435.84 964.676 404.378 925.501 404.378Z" fill="#FEFEFE"/>
</g>
</g>
<defs>
<clipPath id="clip0_1067_16804">
<rect width="1058" height="982" fill="white"/>
</clipPath>
<clipPath id="clip1_1067_16804">
<rect width="419" height="419" fill="white" transform="translate(533 -80)"/>
</clipPath>
<clipPath id="clip2_1067_16804">
<rect width="419" height="419" fill="white" transform="translate(349 314)"/>
</clipPath>
<clipPath id="clip3_1067_16804">
<rect width="419" height="419" fill="white" transform="translate(533 710)"/>
</clipPath>
<clipPath id="clip4_1067_16804">
<rect width="569" height="569" fill="white" transform="translate(986 268)"/>
</clipPath>
<clipPath id="clip5_1067_16804">
<rect width="419" height="419" fill="white" transform="translate(166 -80)"/>
</clipPath>
<clipPath id="clip6_1067_16804">
<rect width="419" height="419" fill="white" transform="translate(-18 314)"/>
</clipPath>
<clipPath id="clip7_1067_16804">
<rect width="419" height="419" fill="white" transform="translate(166 710)"/>
</clipPath>
<clipPath id="clip8_1067_16804">
<rect width="419" height="419" fill="white" transform="translate(-201 -80)"/>
</clipPath>
<clipPath id="clip9_1067_16804">
<rect width="419" height="419" fill="white" transform="translate(-201 710)"/>
</clipPath>
<clipPath id="clip10_1067_16804">
<rect width="419" height="419" fill="white" transform="translate(900 -83)"/>
</clipPath>
<clipPath id="clip11_1067_16804">
<rect width="419" height="419" fill="white" transform="translate(900 707)"/>
</clipPath>
<clipPath id="clip12_1067_16804">
<rect width="419" height="419" fill="white" transform="translate(716 312)"/>
</clipPath>
</defs>
</svg>
