<svg width="81" height="29" viewBox="0 0 81 29" fill="none" xmlns="http://www.w3.org/2000/svg">
<path d="M0.5 4C0.5 1.79086 2.29086 0 4.5 0H76.5C78.7091 0 80.5 1.79086 80.5 4V25C80.5 27.2091 78.7091 29 76.5 29H4.5C2.29086 29 0.5 27.2091 0.5 25V4Z" fill="#C1C1C1"/>
<path d="M6.5 6C6.5 5.44772 6.94772 5 7.5 5H63.5C64.0523 5 64.5 5.44772 64.5 6C64.5 6.55228 64.0523 7 63.5 7H7.5C6.94771 7 6.5 6.55228 6.5 6Z" fill="#585858"/>
<path d="M6.5 14C6.5 13.4477 6.94772 13 7.5 13H63.5C64.0523 13 64.5 13.4477 64.5 14C64.5 14.5523 64.0523 15 63.5 15H7.5C6.94771 15 6.5 14.5523 6.5 14Z" fill="#585858"/>
<path d="M6.5 18C6.5 17.4477 6.94772 17 7.5 17H21.5C22.0523 17 22.5 17.4477 22.5 18C22.5 18.5523 22.0523 19 21.5 19H7.5C6.94772 19 6.5 18.5523 6.5 18Z" fill="#585858"/>
<path d="M68.5 21C68.5 20.4477 68.9477 20 69.5 20C70.0523 20 70.5 20.4477 70.5 21C70.5 21.5523 70.0523 22 69.5 22C68.9477 22 68.5 21.5523 68.5 21Z" fill="#585858"/>
<path d="M72.5 21C72.5 20.4477 72.9477 20 73.5 20C74.0523 20 74.5 20.4477 74.5 21C74.5 21.5523 74.0523 22 73.5 22C72.9477 22 72.5 21.5523 72.5 21Z" fill="#585858"/>
<path d="M68.519 25.1793C68.0412 24.8608 68.0516 24.1553 68.5385 23.8509L70.35 22.7188C71.0536 22.279 71.9464 22.279 72.65 22.7188L74.4615 23.8509C74.9484 24.1553 74.9588 24.8608 74.481 25.1793C74.1946 25.3703 73.8174 25.3539 73.5485 25.1388L72.8062 24.5449C72.0425 23.934 70.9575 23.934 70.1938 24.5449L69.4515 25.1388C69.1826 25.3539 68.8054 25.3703 68.519 25.1793Z" fill="#585858"/>
<path d="M6.5 10C6.5 9.44772 6.94772 9 7.5 9H70.5C71.0523 9 71.5 9.44772 71.5 10C71.5 10.5523 71.0523 11 70.5 11H7.5C6.94772 11 6.5 10.5523 6.5 10Z" fill="#585858"/>
</svg>
